<?xml version="1.0" encoding="UTF-8" standalone="no"?>
<svg
   xmlns:dc="http://purl.org/dc/elements/1.1/"
   xmlns:cc="http://creativecommons.org/ns#"
   xmlns:rdf="http://www.w3.org/1999/02/22-rdf-syntax-ns#"
   xmlns:svg="http://www.w3.org/2000/svg"
   xmlns="http://www.w3.org/2000/svg"
   xmlns:sodipodi="http://sodipodi.sourceforge.net/DTD/sodipodi-0.dtd"
   xmlns:inkscape="http://www.inkscape.org/namespaces/inkscape"
   data-name="Layer 1"
   width="245.44031"
   height="473.03983"
   viewBox="0 0 245.4403 473.03984"
   version="1.1"
   id="svg118"
   sodipodi:docname="undraw_conference_re_2yld.svg"
   inkscape:version="0.92.5 (2060ec1f9f, 2020-04-08)">
  <metadata
     id="metadata124">
    <rdf:RDF>
      <cc:Work
         rdf:about="">
        <dc:format>image/svg+xml</dc:format>
        <dc:type
           rdf:resource="http://purl.org/dc/dcmitype/StillImage" />
      </cc:Work>
    </rdf:RDF>
  </metadata>
  <defs
     id="defs122" />
  <sodipodi:namedview
     pagecolor="#ffffff"
     bordercolor="#666666"
     borderopacity="1"
     objecttolerance="10"
     gridtolerance="10"
     guidetolerance="10"
     inkscape:pageopacity="0"
     inkscape:pageshadow="2"
     inkscape:window-width="1920"
     inkscape:window-height="1011"
     id="namedview120"
     showgrid="false"
     inkscape:zoom="0.91371637"
     inkscape:cx="113.17419"
     inkscape:cy="280.82109"
     inkscape:window-x="0"
     inkscape:window-y="0"
     inkscape:window-maximized="1"
     inkscape:current-layer="svg118" />
  <g
     id="g4095"
     transform="translate(-99.11414,3.8056994e-6)">
    <g
       id="g4051">
      <polygon
         style="fill:#ffb6b6"
         points="253.397,607.84 265.228,607.84 270.856,562.209 253.395,562.21 "
         id="polygon4"
         transform="translate(-2e-5,-157.79667)" />
      <path
         style="fill:#2f2e41"
         inkscape:connector-curvature="0"
         d="m 269.16414,451.10835 v -8.02 l -3.11005,0.19 -12.66,0.75 -2.93,0.18 -2.24,26.86 -0.12,1.44 h 8.4 l 0.27,-1.43 1.22,-6.5 3.15,6.5 0.69,1.43 h 22.27 a 5.03191,5.03191 0 0 0 5,-5.01 c 0.94005,-4.39 -17.57995,-13.88 -19.93995,-16.39 z"
         id="path6" />
      <polygon
         style="fill:#ffb6b6"
         points="114.802,594.963 125.091,600.801 152.505,563.891 137.318,555.275 "
         id="polygon8"
         transform="translate(-2e-5,-157.79667)" />
      <path
         style="fill:#2f2e41"
         inkscape:connector-curvature="0"
         d="m 127.99414,445.86835 3.95,-6.97 -2.78,-1.37 -11.39,-5.59 -2.64,-1.3 -12.97,18.99 -3.05,4.46 3.45,1.96 3.85,2.19 5.22,-6.16 -0.58,8.79 18.19,10.33 h 0.01 l 1.17,0.66 a 5.00819,5.00819 0 0 0 6.82,-1.89 c 2.98,-3.36 -8.44,-20.74 -9.25,-24.1 z"
         id="path10" />
      <path
         style="fill:#ffb6b6"
         inkscape:connector-curvature="0"
         d="m 297.12567,71.60147 a 10.54869,10.54869 0 0 0 -8.44464,13.66695 l -18.1028,15.66875 6.83873,13.32338 25.25388,-22.48636 a 10.5339,10.5339 0 0 0 -5.54517,-20.17272 z"
         id="path12" />
      <path
         style="fill:#2f2e41"
         inkscape:connector-curvature="0"
         d="m 278.06414,113.67835 -6.8,-13.33 -0.7,-1.37 c -7.28,2.56 -21.57995,10.92 -28.1,15.19 -2.39,-3.33 -15.68,-17.82 -27.17,-23.38 0,-0.01 -0.01,0 -0.01,0 q -1.185,-0.57 -2.34,-1.02 a 16.16149,16.16149 0 0 0 -5.59,-1.16 8.60607,8.60607 0 0 0 -2.51,0.36 7.0571,7.0571 0 0 0 -2.36,1.21 c -1.87006,1.44 -3.29,3.95 -4.09,7.83 a 15.31294,15.31294 0 0 0 0.71,5.44 c 3.2,10.61 15.84,22.46 20.31,30.1 0.44,1.18 4.83,12.8 11.76,16.92 a 11.17252,11.17252 0 0 0 1.12994,0.6 c 0.43006,0.06 0.86005,0.11 1.31,0.13 h 0.01 a 18.40077,18.40077 0 0 0 2.11005,0.03 c 0.36,-0.01 0.73,-0.04 1.1,-0.07 0.08,-0.01 0.15,-0.01 0.23,-0.02 a 33.3416,33.3416 0 0 0 6.79,-1.48 c 0.25,-0.08 0.5,-0.16 0.75,-0.25 a 55.869,55.869 0 0 0 5.57,-2.24 c 1.05,-0.48 2.09,-1 3.12994,-1.54 1.26,-0.66 2.52,-1.36 3.75,-2.09 1.06,-0.61 2.1,-1.25 3.12006,-1.91 v -0.01 c 0.24,-0.14 0.48,-0.3 0.72,-0.47 h 0.01 c 9.12,-5.93 16.56,-12.82 17.99,-15.67 a 23.15456,23.15456 0 0 0 2.58,-5.11 z"
         id="path14" />
      <path
         style="fill:#2f2e41"
         inkscape:connector-curvature="0"
         d="m 236.67574,160.57159 c 0,0 25.07055,28.20826 18.76869,34.51012 -6.30186,6.30186 -16.10839,7.95664 -16.10839,7.95664 l -11.989,-0.92411 z"
         id="path16" />
      <path
         style="fill:#2f2e41"
         inkscape:connector-curvature="0"
         d="m 205.92066,84.89959 c 32.33536,18.91875 43.20835,36.9921 28.25419,73.361 z"
         id="path18" />
      <path
         style="fill:#2f2e41"
         inkscape:connector-curvature="0"
         d="m 176.93208,236.14435 c -2.62328,-1.2203 -9.13947,97.21867 -9.67074,99.69217 l -37.36534,69.63583 53.18414,23.84028 34.96954,-121.422 5.82826,44.6833 -7.771,70.91045 34.37738,8.31358 23.778,-1.69843 -16.514,-201.86784 -31.33684,-56.82089 z"
         id="path20" />
      <path
         style="fill:#15355e"
         inkscape:connector-curvature="0"
         d="m 203.13258,87.68829 c 43.90571,32.68844 33.18493,33.27049 33.54245,83.72334 l 20.92092,55.9101 c 0,0 -73.75317,28.564 -81.31541,9.65845 -7.56224,-18.90555 26.85204,-149.29189 26.85204,-149.29189 z"
         id="path22" />
      <path
         style="fill:#2f2e41"
         inkscape:connector-curvature="0"
         d="m 237.24414,156.03835 c -0.09,-0.32 -0.2,-0.69 -0.32,-1.08 v -0.01 c -0.19,-0.63 -0.41,-1.32 -0.67,-2.11005 -0.16,-0.5 -0.33,-1.04 -0.52,-1.61 -0.12006,-0.36 -0.24,-0.73 -0.37006,-1.12 -3.52,-10.63 -10.62,-30.45 -19.24,-52.36 v -0.01 q -1.56,-3.945 -3.18,-7.97 c -0.1,-0.24 -0.19,-0.49 -0.29,-0.73 -0.43,-1.07 -0.87,-2.15 -1.31,-3.23 l -12.62994,-12.62995 -6.81,-4.44 -15,13.85 c 0,0 0.01,0.24 0.03,0.71 0.21,4.27 1.24,27.33 1.37,54.59 0.03,6.87 0.01,14.01 -0.11,21.18 v 0.19 c -0.03,1.88 0,3.34 0.09,4.52 a 19.69382,19.69382 0 0 0 0.29,2.5 c 0.56,3.08 1.59,3.8 2.14,10.21 0,0 -11.8,15.21 -4.95,28.23 a 9.38872,9.38872 0 0 0 1.64,0.1 c 2.42,0.04 8.06,-0.11 23.57,-0.12 2.69,-0.02 5.67,-0.02 8.98,-0.01 21.69,0 10,-12.55 21.59,-23.98 0.25,-0.25 0.5,-0.49 0.77,-0.73 a 26.25022,26.25022 0 0 1 2.6,-2.07 l 1.94,-6.02 0.62,-1.93 0.01,-0.25 0.06,-2.67 0.13,-5.32 0.09,-3.54 a 13.14559,13.14559 0 0 0 -0.52,-2.14 z"
         id="path24" />
      <polygon
         style="opacity:0.2"
         points="203.133,305.289 183.259,274.171 179.814,295.671 "
         id="polygon26"
         transform="translate(-2e-5,-157.79667)" />
      <path
         style="fill:#ffb6b6"
         inkscape:connector-curvature="0"
         d="m 217.69983,21.84641 c 26.08656,14.8443 4.67079,54.011 -21.90207,40.064 -26.08573,-14.84376 -4.66996,-54.01042 21.90207,-40.064 z"
         id="path28" />
      <path
         style="opacity:0.2"
         inkscape:connector-curvature="0"
         d="m 168.4955,157.71535 c 13.83259,16.30165 37.40515,18.65536 55.3076,7.71571 z"
         id="path30" />
      <path
         style="fill:#2f2e41"
         inkscape:connector-curvature="0"
         d="m 231.64897,30.0771 c -1.82784,2.37733 -5.64667,1.26262 -13.12517,2.959 a 31.17581,31.17581 0 0 0 -0.87207,-7.52626 21.18548,21.18548 0 0 1 -3.57209,8.4701 c -6.49375,0.72019 1.46671,20.44782 -1.85819,34.9522 -4.28394,-30.59958 -13.29439,-22.58275 -8.74238,-16.51339 2.91413,3.8855 0.97138,15.542 -7.771,9.71376 -14.42458,6.85539 -34.96953,-27.19853 -12.19938,-43.16932 -0.40687,-8.63264 9.19856,-9.99636 15.11351,-7.34224 14.35473,-10.69338 30.75486,3.00847 33.02677,18.45615 z"
         id="path32" />
      <path
         style="fill:#3f3d56"
         inkscape:connector-curvature="0"
         d="m 246.38124,141.51069 c 7.41429,-0.14769 47.23975,-1.29075 53.77054,-1.00965 0.36943,-1.2933 12.74985,14.57255 13.05093,14.67089 a 1.80834,1.80834 0 0 1 -0.60481,2.90759 c -0.72777,0.44213 -64.93166,-0.74561 -65.70956,-0.59064 a 1.7859,1.7859 0 0 1 -1.59378,-1.03833 l -0.42914,-0.96115 c -0.0446,-1.64432 -0.58291,-10.048 -0.0996,-11.48484 a 1.77815,1.77815 0 0 1 1.61547,-2.49387 z"
         id="path34" />
      <path
         inkscape:connector-curvature="0"
         d="m 244.86552,155.48788 c 0.37681,0.90549 0.85882,2.04315 2.02291,2.00138 l 65.03159,0.7298 a 1.7939,1.7939 0 0 0 1.56527,-2.63308 z"
         style="opacity:0.17000002;isolation:isolate"
         id="path36" />
      <path
         style="fill:#3f3d56"
         inkscape:connector-curvature="0"
         d="m 299.84793,140.30635 c 0.7,-1.21052 18.08616,-87.2383 19.53727,-87.95769 l 11.87032,-14.52105 1.06094,-0.79779 c 1.47535,-0.81045 5.01435,-0.26247 4.69564,1.99087 v 0 c -2.7887,13.37007 -20.7256,89.51848 -21.11867,101.39039 l -2.15914,15.12427 a 1.86252,1.86252 0 0 1 -2.29966,1.52983 3.58265,3.58265 0 0 1 -2.87739,-2.07911 c -0.16186,-0.53372 -9.5221,-14.36985 -8.70931,-14.67972 z"
         id="path38" />
      <path
         inkscape:connector-curvature="0"
         d="m 331.25839,37.82821 -22.70338,117.16092 c 0.75925,1.92173 4.312,3.26805 5.13947,0.74718 0.0145,-0.003 23.29115,-116.64351 23.31482,-116.71324 0.248,-2.80713 -4.39047,-2.89617 -5.75091,-1.19486 z"
         style="opacity:0.17000002;isolation:isolate"
         id="path40" />
      <polygon
         style="fill:#15355e"
         points="330.574,200.416 319.044,216.487 306.102,277.953 312.118,283.201 "
         id="polygon42"
         transform="translate(-2e-5,-157.79667)" />
      <path
         style="fill:#2f2e41"
         inkscape:connector-curvature="0"
         d="m 253.30414,145.62835 c -0.24,-1.86 -0.7,-3.57 -2.05,-3.44 -1.99,-0.01 -1.56,2.7 -1.08,4.98 a 12.53882,12.53882 0 0 1 0.46,2.76 l 3.19,-0.13 a 26.31891,26.31891 0 0 1 -0.52,-4.17 z"
         id="path44" />
      <path
         style="fill:#2f2e41"
         inkscape:connector-curvature="0"
         d="m 272.10414,145.18835 c -0.02,-0.53 0.01,-1.21 -0.06,-1.85 -0.11,-1.06 -0.47,-1.98 -1.68,-1.91 a 1.60032,1.60032 0 0 0 -0.65,0.13 c -1.29,0.58 -0.76,2.93 -0.78,4.07 l 1.04,-0.04 2.15,-0.08 c -0.01,-0.1 -0.02,-0.21 -0.02,-0.32 z"
         id="path46" />
      <path
         style="fill:#2f2e41"
         inkscape:connector-curvature="0"
         d="m 278.47414,144.92835 c -0.05,-1.4 0.2,-3.87 -1.74,-3.76 -2.1,0.04 -1.41,2.9 -1.43006,4.21 l 1.03,-0.04 2.16,-0.09 c -0.01,-0.1 -0.0199,-0.21 -0.0199,-0.32 z"
         id="path48" />
      <path
         style="fill:#2f2e41"
         inkscape:connector-curvature="0"
         d="m 284.84414,144.67835 c -0.05,-1.41 0.2,-3.88 -1.74,-3.76 -2.1,0.04 -1.41,2.9 -1.43,4.2 l 1.04,-0.04 2.15,-0.08 c -0.01,-0.1 -0.02,-0.21 -0.02,-0.32 z"
         id="path50" />
      <path
         style="fill:#2f2e41"
         inkscape:connector-curvature="0"
         d="m 291.21414,144.41835 c -0.05,-1.4 0.2,-3.87 -1.74,-3.76 -2.1,0.05 -1.41,2.9 -1.43,4.21 l 1.03,-0.04 2.16,-0.09 c -0.01,-0.1 -0.02,-0.21 -0.02,-0.32 z"
         id="path52" />
      <path
         style="fill:#2f2e41"
         inkscape:connector-curvature="0"
         d="m 297.58414,144.16835 c -0.04,-1.26 0.15,-3.36 -1.19,-3.71 h -0.01 a 1.50566,1.50566 0 0 0 -0.54,-0.05 1.46387,1.46387 0 0 0 -0.44,0.06 h -0.01 c -1.54,0.43 -0.96,2.94 -0.98,4.14 l 1.04,-0.04 2.15,-0.08 c -0.01,-0.1 -0.02,-0.21 -0.02,-0.32 z"
         id="path54" />
      <path
         style="fill:#2f2e41"
         inkscape:connector-curvature="0"
         d="m 260.17414,141.62835 v -0.01 a 3.11478,3.11478 0 0 0 -0.08,-0.44 c -0.16,-0.85 -0.57,-1.51 -1.6,-1.45 -1.01,0.02 -1.37,0.68 -1.48,1.52 a 13.3303,13.3303 0 0 0 0.04,2.29 c 0.01,0.15 0.01,0.28 0.01,0.4 l 3.19,-0.13 c -0.05,-0.56 0,-1.4 -0.08,-2.18 z"
         id="path56" />
      <path
         style="fill:#2f2e41"
         inkscape:connector-curvature="0"
         d="m 266.49414,141.01835 c -0.16,-0.89 -0.57,-1.61 -1.63,-1.54 -1.05,0.02 -1.4,0.74 -1.49,1.62 a 23.27806,23.27806 0 0 0 0.06,2.58 l 3.19,-0.13 c -0.06,-0.64 0.02,-1.67 -0.13,-2.53 z"
         id="path58" />
      <path
         style="fill:#2f2e41"
         inkscape:connector-curvature="0"
         d="m 272.87414,140.86835 c -0.13995,-0.94 -0.53,-1.71 -1.63995,-1.65 -1.09,0.02 -1.42005,0.79 -1.5,1.72 a 4.23306,4.23306 0 0 0 -0.02,0.62 c 0.01,0.69 0.1,1.39 0.09,1.87 l 2.24,-0.09 0.95,-0.04 c -0.06,-0.62 0.0199,-1.59 -0.12005,-2.43 z"
         id="path60" />
      <path
         style="fill:#2f2e41"
         inkscape:connector-curvature="0"
         d="m 258.43414,145.46835 c -2.1,0.04 -1.42,2.9 -1.43,4.2 l 3.19,-0.12 c -0.12,-1.31 0.34,-4.21 -1.76,-4.08 z"
         id="path62" />
      <path
         style="fill:#2f2e41"
         inkscape:connector-curvature="0"
         d="m 264.80414,145.20835 c -2.1,0.04 -1.42,2.9 -1.43,4.21 l 3.19,-0.13 c -0.12,-1.3 0.34,-4.2 -1.76,-4.08 z"
         id="path64" />
      <path
         style="fill:#2f2e41"
         inkscape:connector-curvature="0"
         d="m 272.10414,145.18835 a 1.40545,1.40545 0 0 0 -0.93,-0.23 1.31958,1.31958 0 0 0 -1.2,0.63 c -0.57,0.92 -0.22,2.64 -0.23,3.57 l 3.19,-0.12 c -0.1,-1.06 0.19,-3.18 -0.83,-3.85 z"
         id="path66" />
      <path
         style="fill:#2f2e41"
         inkscape:connector-curvature="0"
         d="m 278.47414,144.92835 a 1.3893,1.3893 0 0 0 -0.93,-0.23 1.32344,1.32344 0 0 0 -1.21,0.63995 c -0.55,0.93 -0.21,2.64 -0.22,3.57 l 3.19,-0.13 c -0.1,-1.04995 0.19,-3.15995 -0.83,-3.84995 z"
         id="path68" />
      <path
         style="fill:#2f2e41"
         inkscape:connector-curvature="0"
         d="m 284.84414,144.67835 a 1.4051,1.4051 0 0 0 -0.93,-0.23 1.31934,1.31934 0 0 0 -1.2,0.63 c -0.57,0.92 -0.22,2.64 -0.23,3.57 l 3.19,-0.12 c -0.1,-1.06 0.19,-3.18 -0.83,-3.85 z"
         id="path70" />
      <path
         style="fill:#2f2e41"
         inkscape:connector-curvature="0"
         d="m 291.21414,144.41835 a 1.38926,1.38926 0 0 0 -0.93,-0.23 1.31241,1.31241 0 0 0 -1.21,0.64 c -0.55,0.93 -0.21,2.64 -0.22,3.57 l 3.19,-0.13 c -0.1,-1.05 0.19,-3.16 -0.83,-3.85 z"
         id="path72" />
      <path
         style="fill:#2f2e41"
         inkscape:connector-curvature="0"
         d="m 297.58414,144.16835 a 1.405,1.405 0 0 0 -0.93,-0.23 1.30821,1.30821 0 0 0 -1.2,0.63 c -0.56,0.93 -0.22,2.64 -0.23,3.57 l 3.19,-0.12 c -0.1,-1.06 0.19,-3.17 -0.83,-3.85 z"
         id="path74" />
      <path
         style="fill:#2f2e41"
         inkscape:connector-curvature="0"
         d="m 164.71666,7.74901 c -5.8078,35.7085 -36.93733,-6.56715 -51.57425,28.57359 -4.602,12.726 3.29388,21.82962 8.28839,32.39269 1.1399,8.68094 -10.15328,13.0852 -11.33618,21.076 -0.32923,18.31967 29.22628,17.19863 37.48876,5.64056 8.48971,-12.09931 -1.64822,-28.33252 3.45472,-41.31951 7.17216,-18.03062 36.33983,-18.16457 38.88084,-39.14163 -4.92113,-7.00791 -18.15392,-15.03414 -25.20228,-7.2217 z"
         id="path76" />
      <path
         style="fill:#2f2e41"
         inkscape:connector-curvature="0"
         d="m 188.24414,11.23835 c -0.19,0.08 -0.38,0.16 -0.55,0.25 h -0.01 c -0.16,0.08 -0.32,0.16 -0.48,0.25 -0.02,0.01 -0.03,0.02 -0.05,0.03 -0.21,-0.2 -0.42,-0.4 -0.64,-0.6 a 2.3127,2.3127 0 0 0 0.04,0.98 l 0.03,0.12 c 0.2,0.21 0.41,0.41 0.63,0.62 0.2,-0.15 0.39,-0.31 0.59,-0.46 0.12006,-0.1 0.24,-0.2 0.37006,-0.3 0.02,-0.26 0.05,-0.56 0.08,-0.89 z m 6.02,-11.12 c -4.46,-1.02 -5.9,4.81 -6.33,7.62 -1.62,-10.2 -8.36,-6.99 -6.03,-0.03 a 15.5831,15.5831 0 0 0 3.43,5.52 c 0.21,0.24 0.44,0.48 0.68,0.72 -0.27,1.4 1.09,1.04 2.93,-0.25 a 24.50822,24.50822 0 0 0 3.75,-3.29 c 3.67,-3.85 6.53,-9 1.57,-10.29 z m 0.14,5.74 a 34.946,34.946 0 0 1 -4.61,4.89 q -0.795,0.72 -1.62,1.38 c -0.01,0.09 -0.01,0.17 -0.02,0.24 a 1.83179,1.83179 0 0 1 -0.14,0.28 c -0.56,1.01 -1.19,0.46 -1.43,-0.38 -0.02,-0.03 -0.05,-0.06 -0.07,-0.09 a 14.09043,14.09043 0 0 1 -2.07,-2.74 c -4.13,-7.16 2.52,-12.03 2.19,1.34 a 1.26639,1.26639 0 0 0 -0.12,0.39 2.3127,2.3127 0 0 0 0.04,0.98 l 0.03,0.12 c 0.2,0.21 0.41,0.41 0.63,0.62 0.2,-0.15 0.39,-0.31 0.59,-0.46 0.12006,-0.1 0.24,-0.2 0.37006,-0.3 0.02,-0.26 0.05,-0.56 0.08,-0.89 v -0.01 c 0.26,-2.68 0.97,-7.5 2.28,-8.81 2.87994,-2.21 6.60994,0.18 3.86994,3.44 z m -6.16,5.38 c -0.19,0.08 -0.38,0.16 -0.55,0.25 h -0.01 c -0.16,0.08 -0.32,0.16 -0.48,0.25 -0.02,0.01 -0.03,0.02 -0.05,0.03 -0.21,-0.2 -0.42,-0.4 -0.64,-0.6 a 2.3127,2.3127 0 0 0 0.04,0.98 l 0.03,0.12 c 0.2,0.21 0.41,0.41 0.63,0.62 0.2,-0.15 0.39,-0.31 0.59,-0.46 0.12006,-0.1 0.24,-0.2 0.37006,-0.3 0.02,-0.26 0.05,-0.56 0.08,-0.89 z"
         id="path80" />
      <path
         style="fill:#e6e6e6"
         inkscape:connector-curvature="0"
         d="m 339.05445,97.33371 a 5.5,5.5 0 0 0 -5.5,5.49994 v 53.20618 h -105.5 a 5.5,5.5 0 0 0 0,11 h 105.5 v 306 h 11 V 102.83365 a 5.5,5.5 0 0 0 -5.5,-5.49994 z"
         id="path82" />
      <path
         style="fill:#ffb6b6"
         inkscape:connector-curvature="0"
         d="m 247.93833,152.45997 a 10.54869,10.54869 0 0 0 -16.05809,0.48494 l -23.05092,-6.47118 -7.349,13.04884 32.68071,8.68137 a 10.5339,10.5339 0 0 0 13.77734,-15.744 z"
         id="path84" />
      <path
         style="fill:#2f2e41"
         inkscape:connector-curvature="0"
         d="m 196.51414,137.12835 c -1.67,-0.87 -3.34,-1.72 -4.97,-2.51 -3.54,-1.75 -6.83,-3.28 -9.25,-4.32 a 83.63647,83.63647 0 0 0 2.82,-11.02 c 2.84,-14.32 4.77,-36.63995 -8.18,-35.98 a 16.8975,16.8975 0 0 0 -5.44,1.32 c -10.09,5.61 -13.55,27.92 -18.07,37.13 -0.79,1.07 -8.81006,12.19 -7.52,20.42 3.66,8 15.3,14.84 26.21,19.29 l 0.01,0.01 c 2.1,0.86 4.18,1.63 6.16,2.31 2.26,0.77 4.41,1.41 6.34,1.91 3.85,1 6.86005,1.45 8.31,1.25 a 23.42955,23.42955 0 0 0 5.69,-0.66 l 2.29,-4.04 1.41,-2.5 7.37,-13.02 0.76,-1.34 a 110.02578,110.02578 0 0 0 -13.94,-8.25 z"
         id="path86" />
    </g>
  </g>
</svg>